<svg width="24" height="24" viewBox="0 0 24 24" fill="none" xmlns="http://www.w3.org/2000/svg">
  <g  fill="#00AD64" >
    <path fill-rule="evenodd" clip-rule="evenodd" d="M17.5338 4.74734L16.4873 3H7.51312L6.55393 4.74734H2.83333C1.82081 4.74734 1 5.55073 1 6.54177V19C1 20.1046 1.89543 21 3 21H21C22.1046 21 23 20.1046 23 19V6.54177C23 5.55073 22.1792 4.74734 21.1667 4.74734H17.5338ZM7.73757 6.74734L8.69676 5H15.3539L16.4003 6.74734H21V19H3V6.74734H7.73757Z"/>
    <path fill-rule="evenodd" clip-rule="evenodd" d="M16 13C16 10.7909 14.2091 9 12 9C9.79086 9 8 10.7909 8 13C8 15.2091 9.79086 17 12 17C14.2091 17 16 15.2091 16 13ZM10 13C10 11.8954 10.8954 11 12 11C13.1046 11 14 11.8954 14 13C14 14.1046 13.1046 15 12 15C10.8954 15 10 14.1046 10 13Z"/>
  </g>
</svg>
