<svg width="24" height="24" viewBox="0 0 24 24" fill="none" xmlns="http://www.w3.org/2000/svg">
<path  fill="#00AD64" fill-rule="evenodd" clip-rule="evenodd" d="M6.88276 2.80217C4.87845 4.75438 4.83621 7.96177 6.78841 9.96608L8.37543 11.596L1.56317 20.287L2.88368 20.9824C5.32532 22.2226 8.36161 22.8317 12 22.8317L12.5034 22.8277C16.0957 22.7701 19.0779 22.1015 21.451 20.806L22.4248 20.2745L15.7149 11.6858L17.3242 9.97514C17.5103 9.77721 17.6801 9.56511 17.8323 9.34057C19.4211 6.99721 18.8093 3.8096 16.466 2.22084L16.2268 2.05865H13.9308L13.8102 2.85983C13.6881 3.67107 13.1936 4.02496 11.9938 4.02496C10.8007 4.02496 10.3277 3.68072 10.2259 2.88102L10.1211 2.05865H7.8275L7.37638 2.38001C7.18823 2.52237 7.03114 2.65764 6.88276 2.80217ZM8.53123 3.8684L8.67464 3.76667L8.40054 3.38188L8.43727 3.54961C8.46406 3.65958 8.49541 3.76586 8.53123 3.8684ZM8.55769 3.9413H8.43405C8.35141 4.00714 8.27207 4.07706 8.19635 4.15082C6.93687 5.37755 6.91033 7.39302 8.13717 8.65261L10.8726 11.462L4.46043 19.6425C6.48781 20.5099 8.99911 20.9491 11.9925 20.9491L12.4808 20.9452C15.2708 20.9004 17.623 20.4628 19.5413 19.6417L13.2371 11.5722L15.9527 8.68543C16.0703 8.56036 16.1777 8.42616 16.274 8.28408C17.2278 6.87727 16.9282 4.98956 15.6286 3.9413H15.4614C14.9539 5.2317 13.7321 5.9076 11.9938 5.9076C10.2569 5.9076 9.04329 5.23043 8.55769 3.9413ZM15.4095 3.77911L15.4987 3.84174L15.5098 3.80992L15.4095 3.77911Z"/>
</svg>
