<svg width="25" height="24" viewBox="0 0 25 24" fill="none" xmlns="http://www.w3.org/2000/svg">
  <g fill="#00AD64" fill-rule="evenodd" clip-rule="evenodd">
    <path d="M13.0153 17.5386C11.9318 18.5273 10.8205 19.151 9.86127 19.151C6.69141 19.151 1.86127 12.341 1.86127 8.04896C1.86127 3.75691 5.44299 0.277527 9.86127 0.277527C14.2627 0.277527 17.834 3.73047 17.8611 7.99998C17.1559 7.99999 16.4791 8.12168 15.8506 8.34518C15.8577 8.24358 15.8613 8.14475 15.8613 8.04896C15.8613 4.87467 13.1877 2.27753 9.86127 2.27753C6.53479 2.27753 3.86127 4.87467 3.86127 8.04896C3.86127 9.61108 4.81937 11.9799 6.2985 14.0449C7.66845 15.9574 9.18866 17.151 9.86127 17.151C10.3179 17.151 11.1651 16.6009 12.0908 15.6493C12.2871 16.3376 12.6033 16.9753 13.0153 17.5386Z" />
    <path d="M22.8613 14C22.8613 11.2386 20.6227 9 17.8613 9C15.0998 9 12.8613 11.2386 12.8613 14C12.8613 16.7614 15.0998 19 17.8613 19C20.6227 19 22.8613 16.7614 22.8613 14ZM14.8613 14C14.8613 12.3431 16.2044 11 17.8613 11C19.5181 11 20.8613 12.3431 20.8613 14C20.8613 15.6569 19.5181 17 17.8613 17C16.2044 17 14.8613 15.6569 14.8613 14Z" />
    <path d="M16.8959 23C16.6993 21.8999 16.7169 20.374 16.9338 18.3912L18.922 18.6087C18.7081 20.5635 18.7081 21.9856 18.9027 22.8356C18.9151 22.8895 18.9289 22.9443 18.9444 23H16.8959Z" />
    <path d="M8.14576 21.4174C8.94248 20.7812 9.18239 19.9462 8.88933 18.7352L10.8332 18.2648C11.3072 20.2236 10.8109 21.863 9.36889 23H6.90658C6.99723 22.4864 7.35011 21.9895 7.99938 21.5277L8.14576 21.4174Z" />
  </g>
</svg>
