<svg width="24" height="24" viewBox="0 0 24 24" fill="none" xmlns="http://www.w3.org/2000/svg">
<path fill="#00AD64" fill-rule="evenodd" clip-rule="evenodd" d="M2.10117 4.59646V9.9921H5.05338L4.8285 20.9765L5.55219 21.1612C7.59232 21.6817 9.76964 21.9413 12.0827 21.9413C14.3929 21.9413 16.6201 21.6824 18.7629 21.164L19.5084 20.9836L19.1345 9.9921H21.9037V4.6142L18.9888 2.44307C18.6537 2.19347 18.247 2.05865 17.8292 2.05865H14.4206L14.1828 2.64749C13.7622 3.68908 13.112 4.14549 12.0827 4.14549C11.0356 4.14549 10.3194 3.66692 9.80947 2.59548L9.554 2.05865H6.34137C5.94334 2.05865 5.55494 2.181 5.22876 2.40911L2.10117 4.59646ZM6.30774 3.9519C6.3176 3.945 6.32934 3.9413 6.34137 3.9413H8.39887L8.53366 4.15139C9.3635 5.37974 10.5714 6.02814 12.0827 6.02814C13.6775 6.02814 14.9006 5.30322 15.6501 3.9413H17.8292C17.8418 3.9413 17.8541 3.94538 17.8642 3.95292L20.0211 5.55943V8.10945H17.1868L17.5743 19.5025C15.8077 19.8732 13.9775 20.0587 12.0827 20.0587C10.197 20.0587 8.41694 19.8749 6.7416 19.5084L6.97496 8.10945H3.98381V5.57718L6.30774 3.9519Z" />
</svg>
